HIERARCHY
ROOT hip
{
  OFFSET 0.0298126 95.878 -0.219557
  CHANNELS 6 Xposition Yposition Zposition Zrotation Xrotation Yrotation
  JOINT abdomen
  {
    OFFSET 0 7.2397 0
    CHANNELS 6 Xposition Yposition Zposition Zrotation Xrotation Yrotation
    JOINT chest
    {
      OFFSET 0 16.546 0
      CHANNELS 6 Xposition Yposition Zposition Zrotation Xrotation Yrotation
      JOINT neck
      {
        OFFSET 0 34.2149 0
        CHANNELS 6 Xposition Yposition Zposition Zrotation Xrotation Yrotation
        JOINT head
        {
          OFFSET 0 6.2923 0
          CHANNELS 6 Xposition Yposition Zposition Zrotation Xrotation Yrotation
          End Site
          {
            OFFSET 0 21.2161 0
          }
        }
      }
      JOINT lCollar
      {
        OFFSET 4.0639 26.6115 -1.1234
        CHANNELS 6 Xposition Yposition Zposition Zrotation Xrotation Yrotation
        JOINT lShldr
        {
          OFFSET 14.1772 0 0
          CHANNELS 6 Xposition Yposition Zposition Zrotation Xrotation Yrotation
          JOINT lForeArm
          {
            OFFSET 26.1234 0 0
            CHANNELS 6 Xposition Yposition Zposition Zrotation Xrotation Yrotation
            JOINT lHand
            {
              OFFSET 27.7188 0 0
              CHANNELS 6 Xposition Yposition Zposition Zrotation Xrotation Yrotation
              JOINT lThumb1
              {
                OFFSET 2.2979 -0.4685 1.8313
                CHANNELS 6 Xposition Yposition Zposition Zrotation Xrotation Yrotation
                JOINT lThumb2
                {
                  OFFSET 5.2953 0 0
                  CHANNELS 6 Xposition Yposition Zposition Zrotation Xrotation Yrotation
                  JOINT lThumb3
                  {
                    OFFSET 3.0181 0 0
                    CHANNELS 6 Xposition Yposition Zposition Zrotation Xrotation Yrotation
                    End Site
                    {
                      OFFSET 2.6294 0 0
                    }
                  }
                }
              }
              JOINT lIndex1
              {
                OFFSET 9.3793 0.2991 2.5924
                CHANNELS 6 Xposition Yposition Zposition Zrotation Xrotation Yrotation
                JOINT lIndex2
                {
                  OFFSET 4.3461 0 0
                  CHANNELS 6 Xposition Yposition Zposition Zrotation Xrotation Yrotation
                  JOINT lIndex3
                  {
                    OFFSET 2.1666 0 0
                    CHANNELS 6 Xposition Yposition Zposition Zrotation Xrotation Yrotation
                    End Site
                    {
                      OFFSET 2.2048 0 0
                    }
                  }
                }
              }
              JOINT lMid1
              {
                OFFSET 9.4769 0.8376 0.2947
                CHANNELS 6 Xposition Yposition Zposition Zrotation Xrotation Yrotation
                JOINT lMid2
                {
                  OFFSET 4.772 0 0
                  CHANNELS 6 Xposition Yposition Zposition Zrotation Xrotation Yrotation
                  JOINT lMid3
                  {
                    OFFSET 2.8722 0 0
                    CHANNELS 6 Xposition Yposition Zposition Zrotation Xrotation Yrotation
                    End Site
                    {
                      OFFSET 2.0959 0 0
                    }
                  }
                }
              }
              JOINT lRing1
              {
                OFFSET 8.6586 1.0176 -1.7016
                CHANNELS 6 Xposition Yposition Zposition Zrotation Xrotation Yrotation
                JOINT lRing2
                {
                  OFFSET 4.5461 0 0
                  CHANNELS 6 Xposition Yposition Zposition Zrotation Xrotation Yrotation
                  JOINT lRing3
                  {
                    OFFSET 2.506 0 0
                    CHANNELS 6 Xposition Yposition Zposition Zrotation Xrotation Yrotation
                    End Site
                    {
                      OFFSET 2.2023 0 0
                    }
                  }
                }
              }
              JOINT lPinky1
              {
                OFFSET 7.6901 0.6618 -3.9096
                CHANNELS 6 Xposition Yposition Zposition Zrotation Xrotation Yrotation
                JOINT lPinky2
                {
                  OFFSET 3.2119 0 0
                  CHANNELS 6 Xposition Yposition Zposition Zrotation Xrotation Yrotation
                  JOINT lPinky3
                  {
                    OFFSET 1.924 0 0
                    CHANNELS 6 Xposition Yposition Zposition Zrotation Xrotation Yrotation
                    End Site
                    {
                      OFFSET 1.7829 0 0
                    }
                  }
                }
              }
            }
          }
        }
      }
      JOINT rCollar
      {
        OFFSET -4.0677 26.6109 -1.1234
        CHANNELS 6 Xposition Yposition Zposition Zrotation Xrotation Yrotation
        JOINT rShldr
        {
          OFFSET -14.1772 0 0
          CHANNELS 6 Xposition Yposition Zposition Zrotation Xrotation Yrotation
          JOINT rForeArm
          {
            OFFSET -26.1234 0 0
            CHANNELS 6 Xposition Yposition Zposition Zrotation Xrotation Yrotation
            JOINT rHand
            {
              OFFSET -27.7188 0 0
              CHANNELS 6 Xposition Yposition Zposition Zrotation Xrotation Yrotation
              JOINT rThumb1
              {
                OFFSET -2.2979 -0.4684 1.8313
                CHANNELS 6 Xposition Yposition Zposition Zrotation Xrotation Yrotation
                JOINT rThumb2
                {
                  OFFSET -5.2953 0 0
                  CHANNELS 6 Xposition Yposition Zposition Zrotation Xrotation Yrotation
                  JOINT rThumb3
                  {
                    OFFSET -3.0181 0 0
                    CHANNELS 6 Xposition Yposition Zposition Zrotation Xrotation Yrotation
                    End Site
                    {
                      OFFSET -2.6294 0 0
                    }
                  }
                }
              }
              JOINT rIndex1
              {
                OFFSET -9.3793 0.2991 2.5924
                CHANNELS 6 Xposition Yposition Zposition Zrotation Xrotation Yrotation
                JOINT rIndex2
                {
                  OFFSET -4.3461 0 0
                  CHANNELS 6 Xposition Yposition Zposition Zrotation Xrotation Yrotation
                  JOINT rIndex3
                  {
                    OFFSET -2.1666 0 0
                    CHANNELS 6 Xposition Yposition Zposition Zrotation Xrotation Yrotation
                    End Site
                    {
                      OFFSET -2.2048 0 0
                    }
                  }
                }
              }
              JOINT rMid1
              {
                OFFSET -9.4769 0.8376 0.2947
                CHANNELS 6 Xposition Yposition Zposition Zrotation Xrotation Yrotation
                JOINT rMid2
                {
                  OFFSET -4.772 0 0
                  CHANNELS 6 Xposition Yposition Zposition Zrotation Xrotation Yrotation
                  JOINT rMid3
                  {
                    OFFSET -2.8722 0 0
                    CHANNELS 6 Xposition Yposition Zposition Zrotation Xrotation Yrotation
                    End Site
                    {
                      OFFSET -2.0959 0 0
                    }
                  }
                }
              }
              JOINT rRing1
              {
                OFFSET -8.6586 1.0176 -1.7016
                CHANNELS 6 Xposition Yposition Zposition Zrotation Xrotation Yrotation
                JOINT rRing2
                {
                  OFFSET -4.5461 0 0
                  CHANNELS 6 Xposition Yposition Zposition Zrotation Xrotation Yrotation
                  JOINT rRing3
                  {
                    OFFSET -2.506 0 0
                    CHANNELS 6 Xposition Yposition Zposition Zrotation Xrotation Yrotation
                    End Site
                    {
                      OFFSET -2.2023 0 0
                    }
                  }
                }
              }
              JOINT rPinky1
              {
                OFFSET -7.6901 0.6618 -3.9096
                CHANNELS 6 Xposition Yposition Zposition Zrotation Xrotation Yrotation
                JOINT rPinky2
                {
                  OFFSET -3.2119 0 0
                  CHANNELS 6 Xposition Yposition Zposition Zrotation Xrotation Yrotation
                  JOINT rPinky3
                  {
                    OFFSET -1.924 0 0
                    CHANNELS 6 Xposition Yposition Zposition Zrotation Xrotation Yrotation
                    End Site
                    {
                      OFFSET -1.7829 0 0
                    }
                  }
                }
              }
            }
          }
        }
      }
    }
  }
  JOINT lThigh
  {
    OFFSET 8.7379 -0.0029 0.0005
    CHANNELS 6 Xposition Yposition Zposition Zrotation Xrotation Yrotation
    JOINT lShin
    {
      OFFSET 0 -46.6676 0
      CHANNELS 6 Xposition Yposition Zposition Zrotation Xrotation Yrotation
      JOINT lFoot
      {
        OFFSET 0 -40.1476 0
        CHANNELS 6 Xposition Yposition Zposition Zrotation Xrotation Yrotation
        JOINT lToes
        {
          OFFSET 0 -8.8846 14.2294
          CHANNELS 6 Xposition Yposition Zposition Zrotation Xrotation Yrotation
          End Site
          {
            OFFSET 0 0 6.296
          }
        }
      }
    }
  }
  JOINT rThigh
  {
    OFFSET -8.7379 0.0029 -0.0005
    CHANNELS 6 Xposition Yposition Zposition Zrotation Xrotation Yrotation
    JOINT rShin
    {
      OFFSET 0 -46.6676 0
      CHANNELS 6 Xposition Yposition Zposition Zrotation Xrotation Yrotation
      JOINT rFoot
      {
        OFFSET 0 -40.1476 0
        CHANNELS 6 Xposition Yposition Zposition Zrotation Xrotation Yrotation
        JOINT rToes
        {
          OFFSET 0 -8.8846 14.2294
          CHANNELS 6 Xposition Yposition Zposition Zrotation Xrotation Yrotation
          End Site
          {
            OFFSET 0 0 6.296
          }
        }
      }
    }
  }
}
MOTION
Frames:	4
Frame Time:	0.0333333
0.0298126 95.878 -0.219557 -0.342716 3.73402 -3.6756 -1.11022e-16 7.2397 0 0.101767 -2.15064 0.47821 0 16.546 4.44089e-16 -0.128705 -2.44314 0.96442 0 34.2149 0 3.17175 18.554 -1.19155 -8.88178e-16 6.2923 0 -2.82642 -11.7776 2.42786 4.0639 26.6115 -1.1234 -4.9524 -2.46533 -6.2321 14.1772 -2.84217e-14 -1.77636e-15 -72.2514 22.9477 5.82363 26.1234 7.10543e-15 3.55271e-15 -0.22953 -0.312565 -12.8698 27.7188 -7.10543e-15 -1.55431e-15 -13.6603 -1.67922 -0.119605 2.2979 -0.4685 1.8313 79.1408 56.8979 -89.2112 5.2953 0 0 -32.0292 5.45631 7.14623 3.0181 0 -3.55271e-15 12.218 5.09193 0.917693 9.3793 0.2991 2.5924 -18.0139 -2.42788 4.47309 4.3461 4.44089e-15 1.77636e-15 -31.2736 -1.45927 6.1957 2.1666 0 0 -21.4341 -0.797444 3.81542 9.4769 0.8376 0.2947 -18.6112 -5.12435 9.28089 4.772 3.9968e-15 0 -40.479 -3.49301 9.69761 2.8722 0 0 -18.6423 -0.66994 6.14556 8.6586 1.0176 -1.7016 -29.0853 0.528869 9.82998 4.5461 -3.55271e-15 0 -35.3997 -1.46229 4.57952 2.506 -7.10543e-15 0 -17.7329 -0.320432 3.33522 7.6901 0.6618 -3.9096 -36.074 -14.8409 14.0097 3.2119 3.55271e-15 7.10543e-15 -26.2011 -2.05884 8.83043 1.924 0 -7.10543e-15 -5.12582 -0.0206 3.31192 -4.0677 26.6109 -1.1234 6.75198 -1.3666 9.41112 -14.1772 0 -1.77636e-15 71.5134 8.12569 -3.15922 -26.1234 0 -8.88178e-16 0.125805 -0.189215 7.5305 -27.7188 7.10543e-15 0 13.1927 6.87241 -3.57989 -2.2979 -0.4684 1.8313 -26.7892 60.8108 46.2342 -5.2953 7.10543e-15 -3.55271e-15 24.1756 7.54517 -11.446 -3.0181 1.77636e-15 0 -7.31603 14.8218 -17.33 -9.3793 0.2991 2.5924 13.4437 -1.86769 -2.93565 -4.3461 -3.55271e-15 0 28.6852 -1.03604 -5.13014 -2.1666 0 -1.77636e-15 17.568 -0.477834 -2.7464 -9.4769 0.8376 0.2947 16.0024 -5.02503 -0.867908 -4.772 -8.88178e-16 -1.77636e-15 35.6819 -2.475 -7.95857 -2.8722 -7.10543e-15 0 23.6494 -1.03348 -6.75681 -8.6586 1.0176 -1.7016 33.289 0.160999 -2.91634 -4.5461 -7.10543e-15 0 22.5268 -0.510322 -2.56156 -2.506 0 1.77636e-15 14.2834 -0.160172 -2.43592 -7.6901 0.6618 -3.9096 34.0903 -11.3125 -0.934264 -3.2119 -7.10543e-15 -1.77636e-15 28.2006 -2.21973 -8.82058 -1.924 7.10543e-15 3.55271e-15 8.5303 -0.150618 -4.18826 8.7379 -0.0029 0.0005 10.4921 -8.1195 21.9266 0 -46.6676 3.55271e-15 2.92342 15.0823 4.77518 3.55271e-15 -40.1476 0 -9.76001 -6.29321 7.24134 3.55271e-15 -8.8846 14.2294 0.0001 0 -3.18055e-15 -8.7379 0.0029 -0.0005 -8.45118 -8.63168 -17.9795 -3.55271e-15 -46.6676 1.77636e-15 -3.73041 10.6795 1.5312 3.55271e-15 -40.1476 -8.88178e-16 10.0394 -3.33438 -7.50982 0 -8.8846 14.2294 -2.48481e-17 -9.93923e-17 -0 
0.113296 95.8602 -0.333384 -0.278282 3.8087 -3.43237 -1.11022e-16 7.2397 8.88178e-16 0.00152781 -2.14111 0.409489 -1.11022e-16 16.546 0 -0.364378 -2.42492 0.8354 4.44089e-16 34.2149 0 3.20944 18.5483 -1.23705 0 6.2923 7.10543e-15 -2.80058 -11.7819 2.25904 4.0639 26.6115 -1.1234 -4.96259 -2.46583 -6.41855 14.1772 0 0 -72.2397 23.0004 5.78626 26.1234 0 3.55271e-15 -0.232185 -0.315472 -13.0012 27.7188 7.10543e-15 -1.33227e-15 -13.6811 -1.64991 -0.144572 2.2979 -0.4685 1.8313 79.1408 56.8979 -89.2112 5.2953 -7.10543e-15 1.77636e-15 -32.2049 5.37641 7.13951 3.0181 0 0 12.1725 5.05113 0.907324 9.3793 0.2991 2.5924 -18.3892 -2.42985 4.59204 4.3461 8.88178e-16 0 -31.2737 -1.45928 6.19569 2.1666 -7.10543e-15 1.77636e-15 -21.414 -0.795953 3.8116 9.4769 0.8376 0.2947 -18.9013 -5.15324 9.23563 4.772 6.21725e-15 0 -40.4693 -3.49135 9.69568 2.8722 0 3.55271e-15 -18.6144 -0.667636 6.1387 8.6586 1.0176 -1.7016 -28.6975 0.565079 9.56726 4.5461 3.55271e-15 1.77636e-15 -35.4244 -1.46428 4.5823 2.506 -7.10543e-15 0 -17.3366 -0.30396 3.28311 7.6901 0.6618 -3.9096 -35.7347 -14.7931 14.0017 3.2119 -3.55271e-15 0 -26.2161 -2.06118 8.83518 1.924 -1.42109e-14 -7.10543e-15 -5.20092 -0.0229519 3.33792 -4.0677 26.6109 -1.1234 6.77725 -1.35657 9.20994 -14.1772 0 -8.88178e-16 71.5871 8.24092 -2.99999 -26.1234 -7.10543e-15 0 0.120727 -0.182511 7.25174 -27.7188 0 0 13.2177 6.75873 -3.27713 -2.2979 -0.4684 1.8313 -26.7892 60.8108 46.2342 -5.2953 0 1.77636e-15 24.36 7.52095 -11.4127 -3.0181 0 -1.77636e-15 -7.33087 14.8468 -17.3522 -9.3793 0.2991 2.5924 13.3181 -1.85946 -2.94386 -4.3461 1.77636e-15 0 29.1335 -1.07656 -5.20352 -2.1666 0 0 17.5779 -0.478375 -2.74811 -9.4769 0.8376 0.2947 15.9823 -5.02368 -0.865395 -4.772 0 2.66454e-15 35.6819 -2.475 -7.95857 -2.8722 0 1.77636e-15 23.6251 -1.03117 -6.75154 -8.6586 1.0176 -1.7016 33.3752 0.152043 -2.94547 -4.5461 -1.06581e-14 0 22.5554 -0.511606 -2.56464 -2.506 7.10543e-15 0 14.2834 -0.160173 -2.43593 -7.6901 0.6618 -3.9096 34.0903 -11.3125 -0.934264 -3.2119 0 1.77636e-15 28.2006 -2.21974 -8.82059 -1.924 0 0 8.51822 -0.150036 -4.18437 8.7379 -0.0029 0.0005 10.4086 -8.62416 21.8118 3.55271e-15 -46.6676 0 3.03867 15.7095 4.60632 3.55271e-15 -40.1476 0 -9.6629 -6.64391 7.18867 3.55271e-15 -8.8846 14.2294 0.0001 -3.47873e-16 -1.27222e-14 -8.7379 0.0029 -0.0005 -8.61196 -8.8493 -18.0528 3.55271e-15 -46.6676 0 -3.76961 10.9315 1.38451 0 -40.1476 1.77636e-15 10.1085 -3.36056 -7.52885 0 -8.8846 14.2294 -2.48481e-17 -4.96962e-17 -0 
0.284158 95.8007 -0.499036 -0.25892 3.84489 -3.2245 0 7.2397 0 -0.0905248 -2.07604 0.352409 1.11022e-16 16.546 4.44089e-16 -0.600272 -2.29545 0.729457 2.22045e-16 34.2149 -2.22045e-16 3.26579 18.5268 -1.29452 0 6.2923 7.10543e-15 -2.68782 -11.849 2.07369 4.0639 26.6115 -1.1234 -4.99457 -2.46485 -6.63229 14.1772 0 -8.88178e-16 -72.2124 23.0406 5.63181 26.1234 0 0 -0.235347 -0.318846 -13.1538 27.7188 1.42109e-14 -1.11022e-15 -13.6441 -1.59835 -0.204286 2.2979 -0.4685 1.8313 79.1408 56.8979 -89.2112 5.2953 -7.10543e-15 -3.55271e-15 -32.5086 5.23907 7.12682 3.0181 0 0 11.9823 4.87241 0.849236 9.3793 0.2991 2.5924 -18.851 -2.42695 4.74981 4.3461 -8.88178e-16 0 -31.2736 -1.45927 6.19571 2.1666 -7.10543e-15 -3.55271e-15 -21.2205 -0.78163 3.7749 9.4769 0.8376 0.2947 -19.2339 -5.185 9.2204 4.772 -4.44089e-16 0 -40.498 -3.49623 9.70141 2.8722 7.10543e-15 0 -18.6162 -0.667789 6.13915 8.6586 1.0176 -1.7016 -28.1389 0.622585 9.36453 4.5461 -5.32907e-15 0 -35.6357 -1.48125 4.60609 2.506 -7.10543e-15 -3.55271e-15 -17.2854 -0.301864 3.27636 7.6901 0.6618 -3.9096 -35.3706 -14.7484 13.8941 3.2119 -3.55271e-15 -3.55271e-15 -26.3861 -2.08767 8.88879 1.924 7.10543e-15 0 -5.26076 -0.0248562 3.35865 -4.0677 26.6109 -1.1234 6.77886 -1.35126 9.04668 -14.1772 -2.84217e-14 0 71.6235 8.36627 -2.80742 -26.1234 7.10543e-15 1.77636e-15 0.117406 -0.178205 7.07268 -27.7188 -1.42109e-14 -8.88178e-16 13.2329 6.58751 -2.9754 -2.2979 -0.4684 1.8313 -26.7892 60.8108 46.2342 -5.2953 0 3.55271e-15 24.3041 7.52823 -11.4229 -3.0181 8.88178e-16 -3.55271e-15 -7.363 14.8942 -17.3801 -9.3793 0.2991 2.5924 13.3116 -1.85911 -2.941 -4.3461 0 0 28.6812 -1.03567 -5.12947 -2.1666 -1.06581e-14 -1.77636e-15 17.5569 -0.47722 -2.74446 -9.4769 0.8376 0.2947 15.9927 -5.02464 -0.847204 -4.772 0 -8.88178e-16 35.6819 -2.475 -7.95857 -2.8722 0 0 23.6497 -1.03351 -6.75689 -8.6586 1.0176 -1.7016 33.2946 0.160387 -2.91738 -4.5461 -3.55271e-15 0 22.4944 -0.508881 -2.55805 -2.506 -2.13163e-14 0 14.2834 -0.160168 -2.43592 -7.6901 0.6618 -3.9096 34.0903 -11.3125 -0.934272 -3.2119 3.55271e-15 0 28.2006 -2.21972 -8.82058 -1.924 7.10543e-15 3.55271e-15 8.4496 -0.146747 -4.16232 8.7379 -0.0029 0.0005 10.3696 -9.38662 21.6504 0 -46.6676 0 3.27978 16.9492 4.47543 -7.10543e-15 -40.1476 -8.88178e-16 -9.65268 -7.38559 7.08766 7.10543e-15 -8.8846 14.2294 0.0001 0 -3.18055e-15 -8.7379 0.0029 -0.0005 -8.81024 -9.28258 -18.1121 3.55271e-15 -46.6676 1.77636e-15 -3.92046 11.604 1.31849 3.55271e-15 -40.1476 0 10.3132 -3.4555 -7.54359 -3.55271e-15 -8.8846 14.2294 -2.23633e-16 4.96962e-17 -3.18055e-15 
0.585493 95.7126 -0.714286 -0.260972 3.80733 -3.17102 5.55112e-17 7.2397 8.88178e-16 -0.180393 -1.93642 0.328284 0 16.546 4.44089e-16 -0.852308 -2.01691 0.690533 4.44089e-16 34.2149 0 3.35491 18.5071 -1.37029 0 6.2923 -7.10543e-15 -2.52214 -12.023 1.85838 4.0639 26.6115 -1.1234 -4.97691 -2.46737 -6.85118 14.1772 0 -8.88178e-16 -72.232 23.0959 5.37565 26.1234 -1.42109e-14 -3.55271e-15 -0.239991 -0.323836 -13.3796 27.7188 7.10543e-15 1.9984e-15 -13.4185 -1.43552 -0.228003 2.2979 -0.4685 1.8313 79.1408 56.8979 -89.2112 5.2953 0 1.77636e-15 -32.7118 5.14771 7.1176 3.0181 0 3.55271e-15 11.8866 4.78476 0.82334 9.3793 0.2991 2.5924 -19.217 -2.41436 4.89544 4.3461 -1.77636e-15 0 -31.2736 -1.45927 6.19569 2.1666 -1.42109e-14 3.55271e-15 -21.2216 -0.781707 3.7751 9.4769 0.8376 0.2947 -19.2825 -5.18693 9.28072 4.772 -4.44089e-15 -3.55271e-15 -40.5623 -3.50723 9.71426 2.8722 -1.42109e-14 0 -18.6175 -0.667906 6.13949 8.6586 1.0176 -1.7016 -27.9404 0.644174 9.33221 4.5461 3.55271e-15 0 -35.4553 -1.46674 4.58578 2.506 7.10543e-15 0 -17.0187 -0.291019 3.24121 7.6901 0.6618 -3.9096 -35.1902 -14.721 13.9256 3.2119 -7.10543e-15 -7.10543e-15 -26.5397 -2.11174 8.9372 1.924 -1.42109e-14 0 -5.33287 -0.0271657 3.38363 -4.0677 26.6109 -1.1234 6.77109 -1.35315 9.05658 -14.1772 0 0 71.5738 8.52637 -2.59422 -26.1234 0 1.77636e-15 0.114845 -0.174678 6.92737 -27.7188 0 -1.77636e-15 13.2467 6.39564 -2.6278 -2.2979 -0.4684 1.8313 -26.7892 60.8108 46.2342 -5.2953 0 -2.66454e-15 24.2396 7.53671 -11.4345 -3.0181 8.88178e-16 1.77636e-15 -7.36405 14.8817 -17.3788 -9.3793 0.2991 2.5924 13.3536 -1.86165 -2.94649 -4.3461 -1.77636e-15 8.88178e-16 28.6545 -1.03328 -5.12509 -2.1666 0 0 17.5771 -0.478334 -2.74797 -9.4769 0.8376 0.2947 16.0138 -5.02583 -0.868001 -4.772 -8.88178e-16 -8.88178e-16 35.6823 -2.47507 -7.95866 -2.8722 0 3.55271e-15 23.6527 -1.03379 -6.75752 -8.6586 1.0176 -1.7016 33.2575 0.16431 -2.9086 -4.5461 3.55271e-15 0 22.5253 -0.510258 -2.5614 -2.506 0 1.77636e-15 14.2851 -0.160216 -2.4361 -7.6901 0.6618 -3.9096 34.0903 -11.3125 -0.934269 -3.2119 0 0 28.2005 -2.21973 -8.82059 -1.924 -7.10543e-15 0 8.51792 -0.15002 -4.18428 8.7379 -0.0029 0.0005 10.2933 -10.2787 21.418 -7.10543e-15 -46.6676 3.55271e-15 3.61248 18.6271 4.51815 3.55271e-15 -40.1476 -1.77636e-15 -9.61845 -8.37712 6.95728 3.55271e-15 -8.8846 14.2294 0.0001 7.45443e-17 -0 -8.7379 0.0029 -0.0005 -9.06795 -9.79682 -18.1762 3.55271e-15 -46.6676 1.77636e-15 -4.13474 12.4076 1.42752 0 -40.1476 0 10.6153 -3.43256 -7.56855 0 -8.8846 14.2294 4.96962e-17 -9.93923e-17 -0 
